<svg width="67" height="30" viewBox="0 0 67 30" fill="none" xmlns="http://www.w3.org/2000/svg">
<path d="M7.32 23.72H16.28V29H0.48V0.919999H7.32V23.72ZM40.5825 17.48C40.5825 18.12 40.5425 18.7867 40.4625 19.48H24.9825C25.0892 20.8667 25.5292 21.9333 26.3025 22.68C27.1025 23.4 28.0758 23.76 29.2225 23.76C30.9292 23.76 32.1158 23.04 32.7825 21.6H40.0625C39.6892 23.0667 39.0092 24.3867 38.0225 25.56C37.0625 26.7333 35.8492 27.6533 34.3825 28.32C32.9158 28.9867 31.2758 29.32 29.4625 29.32C27.2758 29.32 25.3292 28.8533 23.6225 27.92C21.9158 26.9867 20.5825 25.6533 19.6225 23.92C18.6625 22.1867 18.1825 20.16 18.1825 17.84C18.1825 15.52 18.6492 13.4933 19.5825 11.76C20.5425 10.0267 21.8758 8.69333 23.5825 7.76C25.2892 6.82667 27.2492 6.36 29.4625 6.36C31.6225 6.36 33.5425 6.81333 35.2225 7.72C36.9025 8.62667 38.2092 9.92 39.1425 11.6C40.1025 13.28 40.5825 15.24 40.5825 17.48ZM33.5825 15.68C33.5825 14.5067 33.1825 13.5733 32.3825 12.88C31.5825 12.1867 30.5825 11.84 29.3825 11.84C28.2358 11.84 27.2625 12.1733 26.4625 12.84C25.6892 13.5067 25.2092 14.4533 25.0225 15.68H33.5825ZM54.3509 29.32C52.1643 29.32 50.1909 28.8533 48.4309 27.92C46.6976 26.9867 45.3243 25.6533 44.3109 23.92C43.3243 22.1867 42.8309 20.16 42.8309 17.84C42.8309 15.5467 43.3376 13.5333 44.3509 11.8C45.3643 10.04 46.7509 8.69333 48.5109 7.76C50.2709 6.82667 52.2443 6.36 54.4309 6.36C56.6176 6.36 58.5909 6.82667 60.3509 7.76C62.1109 8.69333 63.4976 10.04 64.5109 11.8C65.5243 13.5333 66.0309 15.5467 66.0309 17.84C66.0309 20.1333 65.5109 22.16 64.4709 23.92C63.4576 25.6533 62.0576 26.9867 60.2709 27.92C58.5109 28.8533 56.5376 29.32 54.3509 29.32ZM54.3509 23.4C55.6576 23.4 56.7643 22.92 57.6709 21.96C58.6043 21 59.0709 19.6267 59.0709 17.84C59.0709 16.0533 58.6176 14.68 57.7109 13.72C56.8309 12.76 55.7376 12.28 54.4309 12.28C53.0976 12.28 51.9909 12.76 51.1109 13.72C50.2309 14.6533 49.7909 16.0267 49.7909 17.84C49.7909 19.6267 50.2176 21 51.0709 21.96C51.9509 22.92 53.0443 23.4 54.3509 23.4Z" fill="black" fill-opacity="0.94"/>
</svg>
