<svg width="30" height="30" viewBox="0 0 30 30" fill="none" xmlns="http://www.w3.org/2000/svg">
<path fill-rule="evenodd" clip-rule="evenodd" d="M5.66683 0.333344C2.72131 0.333344 0.333496 2.72116 0.333496 5.66668V24.3333C0.333496 27.2788 2.72131 29.6667 5.66683 29.6667H24.3335C27.279 29.6667 29.6668 27.2788 29.6668 24.3333V5.66668C29.6668 2.72116 27.279 0.333344 24.3335 0.333344H5.66683ZM7.2729 9.54546C8.52808 9.54546 9.54562 8.52793 9.54562 7.27274C9.54562 6.01754 8.52808 5.00001 7.2729 5.00001C6.0177 5.00001 5.00016 6.01754 5.00016 7.27274C5.00016 8.52793 6.0177 9.54546 7.2729 9.54546ZM9.54562 25V11.3637H5.00016V25H9.54562ZM15.4547 11.3637H11.3638V25H15.4547V16.7739C15.9818 15.9168 16.8908 15 18.182 15C20.0002 15 20.4547 16.8181 20.4547 17.7273V25H25.0002V17.7273C25.0002 15.2912 23.9368 11.3637 20.0002 11.3637C17.4963 11.3637 16.106 12.2771 15.4547 13.1328V11.3637Z" fill="#121212"/>
</svg>
