<svg width="30" height="30" viewBox="0 0 30 30" fill="none" xmlns="http://www.w3.org/2000/svg">
<path fill-rule="evenodd" clip-rule="evenodd" d="M5.66683 0.333328C2.72131 0.333328 0.333496 2.72114 0.333496 5.66666V24.3333C0.333496 27.2788 2.72131 29.6667 5.66683 29.6667H24.3335C27.279 29.6667 29.6668 27.2788 29.6668 24.3333V5.66666C29.6668 2.72114 27.279 0.333328 24.3335 0.333328H5.66683ZM8.08671 7.14572C10.0154 5.50616 12.465 4.60699 14.9964 4.60938C17.5286 4.60522 19.9792 5.50313 21.9094 7.1421C23.8395 8.78107 25.1226 11.054 25.5288 13.5532C25.9351 16.0525 25.4378 18.6148 24.126 20.7807C22.8144 22.9465 20.7742 24.5744 18.3711 25.3723C17.8302 25.4751 17.6578 25.1601 17.6578 24.8757V21.9263C17.6839 21.5659 17.6322 21.2041 17.5064 20.8653C17.3807 20.5265 17.1836 20.2187 16.9288 19.9625C19.302 19.7004 21.793 18.8009 21.793 14.7064C21.8095 13.6475 21.417 12.6229 20.6971 11.8459C21.0222 10.9271 20.9844 9.91897 20.5915 9.02709C20.5915 9.02709 19.7031 8.74177 17.6652 10.1202C15.919 9.64095 14.0758 9.64095 12.3295 10.1202C10.2962 8.74085 9.40044 9.02709 9.40044 9.02709C9.00771 9.9191 8.9706 10.9275 9.2967 11.8459C8.57706 12.6224 8.18396 13.646 8.19898 14.7047C8.19898 18.7879 10.6862 19.7013 13.0511 19.9717C12.6639 20.3492 12.424 20.8524 12.375 21.3909C12.1136 21.5379 11.8258 21.6315 11.5281 21.6665C11.2303 21.7015 10.9286 21.6771 10.6404 21.5948C10.3521 21.5124 10.0831 21.3737 9.8488 21.1867C9.61451 20.9997 9.4196 20.7681 9.27539 20.5053C9.1049 20.2103 8.8692 19.958 8.58631 19.7679C8.30343 19.5779 7.98083 19.4549 7.64318 19.4085C7.64318 19.4085 6.60383 19.3956 7.57092 20.0569C8.13824 20.4187 8.5575 20.9713 8.75294 21.6151C8.75294 21.6151 9.36524 23.6613 12.3295 23.0185C12.3338 23.6905 12.3316 24.2568 12.3303 24.6043C12.3299 24.718 12.3295 24.8083 12.3295 24.8712C12.3295 25.1528 12.1609 25.4649 11.6292 25.3723C9.22676 24.5745 7.18692 22.9473 5.8752 20.7823C4.5635 18.6172 4.06566 16.0557 4.47091 13.5569C4.87615 11.0581 6.15799 8.78529 8.08671 7.14572Z" fill="#121212"/>
</svg>
